<?xml version="1.0" encoding="UTF-8"?>
<svg version="1.1" xmlns="http://www.w3.org/2000/svg" width="250" height="250">
        <path
                d="M0 0 C0 21.12 0 42.24 0 64 C-7.92 67.96 -7.92 67.96 -16 72 C-19.41472656 73.81177734 -19.41472656 73.81177734 -22.8984375 75.66015625 C-23.97480469 76.22541016 -25.05117187 76.79066406 -26.16015625 77.37304688 C-28.33630163 78.51664697 -30.50282528 79.67871369 -32.66015625 80.85742188 C-33.72878906 81.41107422 -34.79742187 81.96472656 -35.8984375 82.53515625 C-36.83349121 83.034104 -37.76854492 83.53305176 -38.73193359 84.04711914 C-46.17795971 86.21818144 -54.28499455 83.65845711 -61.6640625 81.93359375 C-63.46351515 81.52657544 -65.26299513 81.11967798 -67.0625 80.71289062 C-69.85188706 80.07480358 -72.64059461 79.43390009 -75.42871094 78.7902832 C-78.15138935 78.16408628 -80.87629103 77.54839128 -83.6015625 76.93359375 C-84.42572662 76.73986679 -85.24989075 76.54613983 -86.09902954 76.34654236 C-94.39894606 74.4825803 -100.66996866 74.21228887 -108.453125 78.26171875 C-109.14229004 78.60359726 -109.83145508 78.94547577 -110.54150391 79.29771423 C-112.01733099 80.03192293 -113.489636 80.7732474 -114.95861816 81.52105713 C-118.08108129 83.11056735 -121.22024351 84.66570925 -124.35882568 86.2230835 C-125.95495894 87.01546667 -127.5502142 87.80962086 -129.14459229 88.60552979 C-137.22511038 92.63397796 -145.3978802 96.44669005 -153.63525391 100.14477539 C-159.82965835 102.95229523 -165.80020789 105.96138861 -171.7109375 109.3125 C-185.25630394 116.86883802 -195.62890306 122.17138275 -211.44946289 117.90380859 C-213.54588578 117.2772538 -215.63642147 116.63067394 -217.72070312 115.96484375 C-223.56735085 114.24462697 -229.56724943 113.30655526 -235.5625 112.25 C-237.75254407 111.84520439 -239.94148306 111.43435203 -242.12890625 111.015625 C-243.50671265 110.75700684 -243.50671265 110.75700684 -244.91235352 110.49316406 C-247 110 -247 110 -248 109 C-248.09391296 107.09756238 -248.11743658 105.19161541 -248.11352539 103.28686523 C-248.11344986 102.0656749 -248.11337433 100.84448456 -248.11329651 99.58628845 C-248.10818911 98.24372314 -248.10297311 96.90115825 -248.09765625 95.55859375 C-248.09579199 94.19238842 -248.09436813 92.82618243 -248.09336853 91.4599762 C-248.08954394 87.85798305 -248.07971417 84.25603 -248.06866455 80.65405273 C-248.05844916 76.98096255 -248.05387064 73.30786591 -248.04882812 69.63476562 C-248.03809184 62.42315877 -248.02101614 55.211585 -248 48 C-242.09676964 47.74351172 -236.86728469 48.70623593 -231.12109375 50.00390625 C-229.21162731 50.41879825 -227.30212088 50.83350626 -225.39257812 51.24804688 C-222.40745178 51.90509446 -219.42316652 52.56569261 -216.43969727 53.23022461 C-213.54378764 53.87246359 -210.64520804 54.50131801 -207.74609375 55.12890625 C-206.85844833 55.33093155 -205.97080292 55.53295685 -205.05625916 55.74110413 C-197.67271476 57.32967265 -192.89454758 56.71827078 -186.09765625 53.2265625 C-184.97335205 52.65534668 -183.84904785 52.08413086 -182.69067383 51.49560547 C-182.10041412 51.19120544 -181.51015442 50.88680542 -180.90200806 50.57318115 C-177.74012424 48.94337658 -174.56424517 47.34116902 -171.390625 45.734375 C-170.75252396 45.41036713 -170.11442291 45.08635925 -169.45698547 44.75253296 C-163.24628043 41.60363029 -156.97287192 38.59918148 -150.67382812 35.63208008 C-144.90777687 32.90290157 -139.1839366 30.10324948 -133.48042297 27.24591064 C-129.77736544 25.39196413 -126.0684445 23.5498923 -122.35946655 21.70782471 C-120.50686831 20.78361769 -118.6570615 19.85379215 -116.81021118 18.91815186 C-114.1942763 17.59362712 -111.56910763 16.2892709 -108.94140625 14.98828125 C-107.76762421 14.38444862 -107.76762421 14.38444862 -106.57012939 13.76841736 C-98.05696163 9.60429803 -91.01508087 10.95969309 -82.09375 12.96875 C-81.16961304 13.1685144 -80.24547607 13.36827881 -79.29333496 13.57409668 C-75.37140208 14.42214035 -71.45376462 15.28932658 -67.53564453 16.15478516 C-64.66058913 16.78694376 -61.78352567 17.40928888 -58.90625 18.03125 C-58.03206421 18.22811401 -57.15787842 18.42497803 -56.25720215 18.62780762 C-46.32420732 20.82606648 -46.32420732 20.82606648 -36.80078125 18.1640625 C-35.71385986 17.56343994 -35.71385986 17.56343994 -34.60498047 16.95068359 C-33.84846191 16.51320801 -33.09194336 16.07573242 -32.3125 15.625 C-30.65704751 14.70973377 -28.99940417 13.79842146 -27.33984375 12.890625 C-26.4772998 12.41689453 -25.61475586 11.94316406 -24.72607422 11.45507812 C-20.01649012 8.9412754 -15.20014811 6.6569128 -10.375 4.375 C-9.45630127 3.93752441 -8.53760254 3.50004883 -7.59106445 3.04931641 C-1.13841644 0 -1.13841644 0 0 0 Z "
                fill="#134e4a"
                transform="translate(249,35)"
        />
        <path
                d="M0 0 C0 18.48 0 36.96 0 56 C-7.59 59.96 -15.18 63.92 -23 68 C-30.93499043 72.58505751 -30.93499043 72.58505751 -38.80444336 77.27246094 C-45.43835344 79.47073204 -52.59274161 77.47174661 -59.1953125 76.03125 C-60.14638885 75.8314856 -61.09746521 75.63172119 -62.07736206 75.42590332 C-65.09490261 74.79150532 -68.1100901 74.14677558 -71.125 73.5 C-74.14718342 72.85393783 -77.16979465 72.21033974 -80.19406128 71.57409668 C-82.06960098 71.17936352 -83.94396605 70.77899456 -85.81692505 70.37219238 C-93.90283282 68.66740865 -99.07402772 68.59588065 -106.6328125 72.33984375 C-107.73876015 72.86995811 -107.73876015 72.86995811 -108.86705017 73.41078186 C-111.2916335 74.57576555 -113.70810654 75.75665705 -116.125 76.9375 C-117.82158573 77.75579935 -119.51877953 78.5728391 -121.21655273 79.38867188 C-124.73138103 81.07862772 -128.24365806 82.77372945 -131.75439453 84.47216797 C-136.74953841 86.88447946 -141.75967878 89.26384746 -146.77734375 91.62890625 C-147.55690933 91.99645523 -148.33647491 92.36400421 -149.1396637 92.74269104 C-152.95594023 94.54047412 -156.77424913 96.33386723 -160.59399414 98.12426758 C-166.9508822 101.10876677 -173.28313629 104.11187471 -179.53125 107.3203125 C-180.48507568 107.80242187 -181.43890137 108.28453125 -182.42163086 108.78125 C-184.09272629 109.63155131 -185.75402816 110.50163265 -187.40063477 111.3984375 C-193.59943895 114.52849264 -198.25940532 114.17551522 -205 113 C-205.75100983 112.87046936 -206.50201965 112.74093872 -207.27578735 112.60748291 C-212.76833732 111.64998229 -218.24547556 110.62072119 -223.71923828 109.56152344 C-226.65136659 108.99490479 -229.58528043 108.43832364 -232.51953125 107.8828125 C-234.38032076 107.5266285 -236.24100207 107.1698787 -238.1015625 106.8125 C-238.98059235 106.64580811 -239.85962219 106.47911621 -240.76528931 106.30737305 C-246.88460998 105.11539002 -246.88460998 105.11539002 -248 104 C-248.09376053 102.18944975 -248.1174411 100.37522799 -248.11352539 98.56225586 C-248.11344986 97.40112778 -248.11337433 96.23999969 -248.11329651 95.04368591 C-248.10813522 93.780168 -248.10297394 92.51665009 -248.09765625 91.21484375 C-248.0962413 89.92888809 -248.09482635 88.64293243 -248.09336853 87.31800842 C-248.08954418 83.89356557 -248.07971462 80.46916491 -248.06866455 77.04473877 C-248.05844864 73.55261811 -248.05387053 70.06049066 -248.04882812 66.56835938 C-248.03809227 59.71222222 -248.02101684 52.85611313 -248 46 C-241.141144 46.50624591 -234.53273382 47.33986206 -227.82421875 48.84765625 C-227.01056351 49.02380966 -226.19690826 49.19996307 -225.3585968 49.38145447 C-222.80015928 49.93558255 -220.24366496 50.49798835 -217.6875 51.0625 C-214.2970814 51.81052203 -210.90498932 52.55019442 -207.51171875 53.28515625 C-206.74599045 53.45700943 -205.98026215 53.62886261 -205.19132996 53.80592346 C-204.46649918 53.96286179 -203.7416684 54.11980011 -202.99487305 54.28149414 C-202.36630905 54.42059708 -201.73774506 54.55970001 -201.09013367 54.70301819 C-195.46067183 55.5028942 -191.88392444 54.81393308 -186.80883789 52.23706055 C-186.22067795 51.94261551 -185.63251801 51.64817047 -185.02653503 51.34480286 C-183.08604973 50.3699312 -181.15460208 49.37839077 -179.22265625 48.38671875 C-177.85199947 47.6945046 -176.48076681 47.00342971 -175.10899353 46.31343079 C-171.48754528 44.48842465 -167.87332958 42.6495417 -164.26068115 40.80718994 C-158.55805188 37.90243542 -152.84391346 35.02029846 -147.13184738 32.13415909 C-145.04084468 31.07709442 -142.95066561 30.01841315 -140.86050415 28.95968628 C-130.07415453 23.50324911 -119.21408837 18.213017 -108.26281738 13.09436035 C-106.75694492 12.36607926 -105.26770589 11.60233438 -103.79772949 10.80407715 C-99.78111264 8.62916413 -97.30284643 7.43059739 -92.6640625 8.4921875 C-91.6944458 8.70012939 -90.7248291 8.90807129 -89.72583008 9.12231445 C-88.70255615 9.37070068 -87.67928223 9.61908691 -86.625 9.875 C-85.54951904 10.1124292 -84.47403809 10.3498584 -83.3659668 10.59448242 C-79.90309527 11.36665146 -76.4516517 12.17922406 -73 13 C-69.4183982 13.83802009 -65.83623461 14.67353678 -62.25341797 15.50634766 C-60.00141848 16.03395531 -57.75161044 16.57102822 -55.50439453 17.11865234 C-54.47813965 17.36437988 -53.45188477 17.61010742 -52.39453125 17.86328125 C-51.49581299 18.08282471 -50.59709473 18.30236816 -49.67114258 18.52856445 C-44.53043133 19.43585935 -40.8455831 19.31042823 -36.19921875 16.875 C-35.31202148 16.41907471 -34.42482422 15.96314941 -33.51074219 15.4934082 C-32.57907227 15.0005835 -31.64740234 14.50775879 -30.6875 14 C-28.72866603 12.99193073 -26.76901998 11.98543799 -24.80859375 10.98046875 C-23.83519043 10.47821777 -22.86178711 9.9759668 -21.85888672 9.45849609 C-17.69181212 7.33261192 -13.48133813 5.30676495 -9.25 3.3125 C-8.54190186 2.97412109 -7.83380371 2.63574219 -7.10424805 2.28710938 C-2.24293179 0 -2.24293179 0 0 0 Z "
                fill="#134e4a"
                transform="translate(249,115)"
        />
        <path
                d="M0 0 C0 21.12 0 42.24 0 64 C-7.92 67.96 -7.92 67.96 -16 72 C-19.41472656 73.81177734 -19.41472656 73.81177734 -22.8984375 75.66015625 C-23.97480469 76.22541016 -25.05117187 76.79066406 -26.16015625 77.37304688 C-28.33630163 78.51664697 -30.50282528 79.67871369 -32.66015625 80.85742188 C-33.72878906 81.41107422 -34.79742187 81.96472656 -35.8984375 82.53515625 C-36.83349121 83.034104 -37.76854492 83.53305176 -38.73193359 84.04711914 C-46.17277031 86.21666835 -54.31373797 83.66039114 -61.69921875 81.96875 C-62.5785054 81.77277222 -63.45779205 81.57679443 -64.36372375 81.37487793 C-67.13958172 80.75541364 -69.91361643 80.12824074 -72.6875 79.5 C-75.47232882 78.87288851 -78.25752268 78.24750918 -81.04341125 77.62512207 C-82.7670562 77.23969331 -84.49007112 76.85143203 -86.21232605 76.45983887 C-90.79694042 75.43078261 -95.33868058 74.5957755 -100 74 C-99.01 73.505 -99.01 73.505 -98 73 C-98 52.87 -98 32.74 -98 12 C-98.66 11.67 -99.32 11.34 -100 11 C-93.72501618 10.77162104 -88.20425937 11.59268165 -82.09375 12.96875 C-81.16961304 13.1685144 -80.24547607 13.36827881 -79.29333496 13.57409668 C-75.37140208 14.42214035 -71.45376462 15.28932658 -67.53564453 16.15478516 C-64.66058913 16.78694376 -61.78352567 17.40928888 -58.90625 18.03125 C-58.03206421 18.22811401 -57.15787842 18.42497803 -56.25720215 18.62780762 C-46.32420732 20.82606648 -46.32420732 20.82606648 -36.80078125 18.1640625 C-36.07616699 17.76364746 -35.35155273 17.36323242 -34.60498047 16.95068359 C-33.84846191 16.51320801 -33.09194336 16.07573242 -32.3125 15.625 C-30.65704751 14.70973377 -28.99940417 13.79842146 -27.33984375 12.890625 C-26.4772998 12.41689453 -25.61475586 11.94316406 -24.72607422 11.45507812 C-20.01649012 8.9412754 -15.20014811 6.6569128 -10.375 4.375 C-9.45630127 3.93752441 -8.53760254 3.50004883 -7.59106445 3.04931641 C-1.13841644 0 -1.13841644 0 0 0 Z "
                fill="#042f2e"
                transform="translate(249,35)"
        />
        <path
                d="M0 0 C0 18.48 0 36.96 0 56 C-7.59 59.96 -15.18 63.92 -23 68 C-30.93499043 72.58505751 -30.93499043 72.58505751 -38.80444336 77.27246094 C-45.86523906 79.61218863 -53.68822843 77.27401084 -60.71875 75.8125 C-62.18103027 75.51762695 -62.18103027 75.51762695 -63.67285156 75.21679688 C-67.28362322 74.48632642 -70.89165848 73.74238167 -74.5 73 C-82.585 71.35 -90.67 69.7 -99 68 C-98.505 38.3 -98.505 38.3 -98 8 C-69.42379679 13.71524064 -69.42379679 13.71524064 -55.54882812 17.11132812 C-54.50791016 17.35947266 -53.46699219 17.60761719 -52.39453125 17.86328125 C-51.04645386 18.19259644 -51.04645386 18.19259644 -49.67114258 18.52856445 C-44.53043133 19.43585935 -40.8455831 19.31042823 -36.19921875 16.875 C-35.31202148 16.41907471 -34.42482422 15.96314941 -33.51074219 15.4934082 C-32.57907227 15.0005835 -31.64740234 14.50775879 -30.6875 14 C-28.72866603 12.99193073 -26.76901998 11.98543799 -24.80859375 10.98046875 C-23.83519043 10.47821777 -22.86178711 9.9759668 -21.85888672 9.45849609 C-17.69181212 7.33261192 -13.48133813 5.30676495 -9.25 3.3125 C-8.54190186 2.97412109 -7.83380371 2.63574219 -7.10424805 2.28710938 C-2.24293179 0 -2.24293179 0 0 0 Z "
                fill="#042f2e"
                transform="translate(249,115)"
        />
        <path
                d="M0 0 C6.24825143 -0.30349734 11.87773051 0.84519748 17.96484375 2.1875 C19.51480797 2.52044067 19.51480797 2.52044067 21.09608459 2.86010742 C24.37804754 3.56669706 27.65775475 4.28319466 30.9375 5 C33.16978003 5.48242762 35.40220057 5.96420561 37.63476562 6.4453125 C43.09149321 7.62269041 48.5464056 8.80819833 54 10 C53.34 10.33 52.68 10.66 52 11 C52 30.47 52 49.94 52 70 C52.99 70.33 53.98 70.66 55 71 C51.36175019 72.26958905 48.72681769 71.73734822 45.00390625 70.92578125 C43.81442383 70.67207764 42.62494141 70.41837402 41.39941406 70.15698242 C40.13323242 69.87830322 38.86705078 69.59962402 37.5625 69.3125 C34.94478021 68.74898929 32.32585749 68.19115502 29.70703125 67.6328125 C29.05419159 67.49270248 28.40135193 67.35259247 27.72872925 67.20823669 C20.87151916 65.74271511 13.98432611 64.45184259 7.08422852 63.20629883 C1.10422563 62.10422563 1.10422563 62.10422563 0 61 C-0.09391296 59.09756238 -0.11743658 57.19161541 -0.11352539 55.28686523 C-0.11344986 54.0656749 -0.11337433 52.84448456 -0.11329651 51.58628845 C-0.10818911 50.24372314 -0.10297311 48.90115825 -0.09765625 47.55859375 C-0.09579199 46.19238842 -0.09436813 44.82618243 -0.09336853 43.4599762 C-0.08954394 39.85798305 -0.07971417 36.25603 -0.06866455 32.65405273 C-0.05844916 28.98096255 -0.05387064 25.30786591 -0.04882812 21.63476562 C-0.03809184 14.42315877 -0.02101614 7.211585 0 0 Z "
                fill="#042f2e"
                transform="translate(1,83)"
        />
        <path
                d="M0 0 C7.30283517 0.52358795 14.32846731 1.51508161 21.48046875 3.06640625 C22.88876701 3.36393044 22.88876701 3.36393044 24.32551575 3.66746521 C27.28080652 4.2932188 30.23414311 4.92768884 33.1875 5.5625 C35.20886082 5.99211818 37.23034429 6.42115973 39.25195312 6.84960938 C44.16940944 7.89308989 49.08513515 8.94438385 54 10 C53.34 10.33 52.68 10.66 52 11 C52 29.48 52 47.96 52 67 C52.99 67.495 52.99 67.495 54 68 C43.94580862 67.52279127 34.13785606 65.46891561 24.28076172 63.56152344 C21.34863341 62.99490479 18.41471957 62.43832364 15.48046875 61.8828125 C13.61967924 61.5266285 11.75899793 61.1698787 9.8984375 60.8125 C9.01940765 60.64580811 8.14037781 60.47911621 7.23471069 60.30737305 C1.11539002 59.11539002 1.11539002 59.11539002 0 58 C-0.09376053 56.18944975 -0.1174411 54.37522799 -0.11352539 52.56225586 C-0.11344986 51.40112778 -0.11337433 50.23999969 -0.11329651 49.04368591 C-0.10813522 47.780168 -0.10297394 46.51665009 -0.09765625 45.21484375 C-0.0962413 43.92888809 -0.09482635 42.64293243 -0.09336853 41.31800842 C-0.08954418 37.89356557 -0.07971462 34.46916491 -0.06866455 31.04473877 C-0.05844864 27.55261811 -0.05387053 24.06049066 -0.04882812 20.56835938 C-0.03809227 13.71222222 -0.02101684 6.85611313 0 0 Z "
                fill="#042f2e"
                transform="translate(1,161)"
        />
        <path
                d="M0 0 C0 21.12 0 42.24 0 64 C-7.92 67.96 -7.92 67.96 -16 72 C-18.20171875 73.1240625 -20.4034375 74.248125 -22.671875 75.40625 C-23.68507812 75.921875 -24.69828125 76.4375 -25.7421875 76.96875 C-27.79726555 78.01497155 -29.84922252 79.06734065 -31.8984375 80.125 C-32.89617187 80.6303125 -33.89390625 81.135625 -34.921875 81.65625 C-35.80456055 82.10806641 -36.68724609 82.55988281 -37.59667969 83.02539062 C-40 84 -40 84 -44 84 C-44.18555702 76.00279735 -44.32759902 68.006497 -44.41449738 60.00767231 C-44.45621076 56.29315864 -44.51275646 52.58011978 -44.60351562 48.86645508 C-44.69059759 45.28071366 -44.73830313 41.69638798 -44.75901794 38.10967064 C-44.77377372 36.74315278 -44.80259259 35.37671053 -44.84584045 34.0107975 C-45.17083432 23.31880048 -45.17083432 23.31880048 -42.30419922 20.08988953 C-40.23507811 18.76829236 -38.2943092 17.86118008 -36 17 C-34.68332702 16.35612044 -33.37016739 15.70494656 -32.0625 15.04296875 C-30.710457 14.41985041 -29.35621665 13.80148138 -28 13.1875 C-19.57489774 9.30137579 -11.27911375 5.18653797 -3 1 C-1 0 -1 0 0 0 Z "
                fill="#134e4a"
                transform="translate(249,35)"
        />
        <path
                d="M0 0 C0 18.48 0 36.96 0 56 C-7.59 59.96 -15.18 63.92 -23 68 C-29.85655169 71.71383711 -29.85655169 71.71383711 -36.69921875 75.453125 C-40 77 -40 77 -44 77 C-44 58.52 -44 40.04 -44 21 C-3.75 0 -3.75 0 0 0 Z "
                fill="#134e4a"
                transform="translate(249,115)"
        />
        <path
                d="M0 0 C10.125 1.125 10.125 1.125 14.88696289 2.12329102 C16.477593 2.45352013 16.477593 2.45352013 18.10035706 2.79042053 C19.21321579 3.02587082 20.32607452 3.26132111 21.47265625 3.50390625 C23.21814003 3.86801857 23.21814003 3.86801857 24.99888611 4.23948669 C28.68759226 5.00989589 32.37504941 5.78610592 36.0625 6.5625 C38.57478932 7.08827528 41.08715834 7.6136699 43.59960938 8.13867188 C49.73400198 9.42137797 55.86738169 10.70883918 62 12 C61 15 61 15 58.79223633 16.29589844 C57.81536865 16.7293457 56.83850098 17.16279297 55.83203125 17.609375 C54.724646 18.10993408 53.61726074 18.61049316 52.47631836 19.1262207 C51.87979462 19.39052887 51.28327087 19.65483704 50.66867065 19.92715454 C47.49543718 21.3338575 44.33729684 22.77347958 41.1796875 24.21484375 C40.51825241 24.5162175 39.85681732 24.81759125 39.17533875 25.12809753 C30.15943018 29.26432831 21.33787877 33.79918655 12.51293945 38.32519531 C11.29901706 38.94210881 10.08506979 39.55897334 8.87109375 40.17578125 C7.27672485 40.99429565 7.27672485 40.99429565 5.65014648 41.8293457 C3 43 3 43 0 43 C0 28.81 0 14.62 0 0 Z "
                fill="#042f2e"
                transform="translate(38,22)"
        />
</svg>
